<svg width="16" height="16" viewBox="0 0 16 16" fill="none" xmlns="http://www.w3.org/2000/svg">
<path fill-rule="evenodd" clip-rule="evenodd" d="M8.00079 10.2372H5.33386H2.66693L4.00039 7.92869L5.33386 5.6186L6.66732 7.92869L8.00079 10.2372Z" fill="#90CDB2"/>
<path fill-rule="evenodd" clip-rule="evenodd" d="M2.66693 10.2372L4.00039 12.5473L5.33386 14.8558L6.66732 12.5473L8.00079 10.2372H5.33386H2.66693Z" fill="#74C39D"/>
<path fill-rule="evenodd" clip-rule="evenodd" d="M10.6677 14.8558H8.00079H5.33386L6.66732 12.5473L8.00079 10.2372L9.33425 12.5473L10.6677 14.8558Z" fill="#5DBB89"/>
<path fill-rule="evenodd" clip-rule="evenodd" d="M0 5.6186L1.33346 7.92869L2.66693 10.2372L4.00039 7.92869L5.33386 5.6186H2.66693H0Z" fill="#B1DBC9"/>
<path fill-rule="evenodd" clip-rule="evenodd" d="M5.33386 5.6186H2.66693H0L1.33346 3.30852L2.66693 1L4.00039 3.30852L5.33386 5.6186Z" fill="#D7ECE3"/>
<path fill-rule="evenodd" clip-rule="evenodd" d="M10.6677 5.6186H8.00079H5.33386L6.66732 3.30852L8.00079 1L9.33425 3.30852L10.6677 5.6186Z" fill="#90CDB2"/>
<path fill-rule="evenodd" clip-rule="evenodd" d="M8.00078 1L9.33425 3.30852L10.6677 5.6186L11.9996 3.30852L13.3331 1H10.6677H8.00078Z" fill="#74C39D"/>
<path fill-rule="evenodd" clip-rule="evenodd" d="M16 5.6186H13.3331H10.6677L11.9996 3.30852L13.3331 1L14.6665 3.30852L16 5.6186Z" fill="#5DBB89"/>
<path fill-rule="evenodd" clip-rule="evenodd" d="M10.6677 5.6186H13.3331H16L14.6665 7.92869L13.3331 10.2372L11.9996 7.92869L10.6677 5.6186Z" fill="#00A96C"/>
</svg>
