<svg width="275" height="276" viewBox="0 0 275 276" fill="none" xmlns="http://www.w3.org/2000/svg">
<path fill-rule="evenodd" clip-rule="evenodd" d="M137.01 115.465H103.673H70.3366L87.0049 86.6086L103.673 57.7326L120.341 86.6086L137.01 115.465Z" fill="#90CDB2"/>
<path fill-rule="evenodd" clip-rule="evenodd" d="M70.3366 115.465L87.0049 144.341L103.673 173.198L120.341 144.341L137.01 115.465H103.673H70.3366Z" fill="#74C39D"/>
<path fill-rule="evenodd" clip-rule="evenodd" d="M170.346 173.198H137.01H103.673L120.341 144.341L137.01 115.465L153.678 144.341L170.346 173.198Z" fill="#5DBB89"/>
<path fill-rule="evenodd" clip-rule="evenodd" d="M37 57.7326L53.6683 86.6086L70.3366 115.465L87.0049 86.6086L103.673 57.7326H70.3366H37Z" fill="#B1DBC9"/>
<path fill-rule="evenodd" clip-rule="evenodd" d="M103.673 57.7326H70.3366H37L53.6683 28.8565L70.3366 0L87.0049 28.8565L103.673 57.7326Z" fill="#D7ECE3"/>
<path fill-rule="evenodd" clip-rule="evenodd" d="M170.346 57.7326H137.01H103.673L120.341 28.8565L137.01 0L153.678 28.8565L170.346 57.7326Z" fill="#90CDB2"/>
<path fill-rule="evenodd" clip-rule="evenodd" d="M137.01 0L153.678 28.8565L170.346 57.7326L186.995 28.8565L203.663 0H170.346H137.01Z" fill="#74C39D"/>
<path fill-rule="evenodd" clip-rule="evenodd" d="M237 57.7326H203.663H170.346L186.995 28.8565L203.663 0L220.332 28.8565L237 57.7326Z" fill="#5DBB89"/>
<path fill-rule="evenodd" clip-rule="evenodd" d="M170.346 57.7326H203.663H237L220.332 86.6086L203.663 115.465L186.995 86.6086L170.346 57.7326Z" fill="#00A96C"/>
<path fill-rule="evenodd" clip-rule="evenodd" d="M0 201.38L17.72 246.15H26.61L44.51 201.38H35.68L22.38 236.62L9.21 201.38H0ZM54.22 201.38V246.15H87.8V238.67H62.8V227.41H84.55V219.93H62.8V208.87H87.04V201.38H54.22ZM128.66 213.15L132.11 205.73C127.83 202.92 121.88 201 115.93 201C105.89 201 99.17 205.99 99.17 213.79C99.17 229.72 123.22 224.41 123.22 233.75C123.22 236.88 120.34 238.67 115.55 238.67C110.75 238.67 104.68 236.18 100.07 232.08L96.49 239.31C101.29 243.59 108.26 246.47 115.42 246.47C125.27 246.47 132.56 241.61 132.56 233.23C132.62 217.18 108.58 222.1 108.58 213.02C108.58 210.27 111.2 208.8 115.23 208.8C118.68 208.8 123.86 210.27 128.66 213.15ZM139.71 201.38V208.99H153.65V246.15H162.28V208.99H176.22V201.38H139.71ZM186.33 201.38V246.15H219.91V238.67H194.9V227.41H216.65V219.93H194.9V208.87H219.14V201.38H186.33ZM251.23 201.38H232.62V246.15H250.91C264.72 246.15 274.57 236.81 274.57 223.77C274.58 210.66 264.79 201.38 251.23 201.38ZM251.42 238.61H241.19V208.93H251.1C259.48 208.93 265.81 215.07 265.81 223.83C265.81 232.53 259.67 238.61 251.42 238.61Z" fill="#FCFDFD"/>
<path fill-rule="evenodd" clip-rule="evenodd" d="M0 260.94V275.59H2.8V260.94H0ZM31.13 260.94V275.59H33.87V265.59L41.4 275.59H44.06V260.94H41.34V270.96L33.79 260.94H31.13ZM70.76 260.94V263.43H75.32V275.59H78.14V263.43H82.7V260.94H70.76ZM109.42 260.94V275.59H120.4V273.14H112.22V269.46H119.33V267.01H112.22V263.39H120.15V260.94H109.42ZM160.34 275.58L157.12 270.73C159 269.94 160.03 268.28 160.03 265.98C160.03 262.76 157.87 260.94 154.09 260.94H147.98V275.59H150.78V271.28H154.09C154.28 271.28 154.45 271.28 154.61 271.26L157.14 275.59H160.34V275.58ZM150.78 263.39H154.09C156.18 263.39 157.35 264.27 157.35 266.07C157.35 267.91 156.18 268.81 154.09 268.81H150.78V263.39ZM187.83 260.94V275.59H198.81V273.14H190.63V269.46H197.74V267.01H190.63V263.39H198.56V260.94H187.83ZM235.6 264.79L236.73 262.36C235.33 261.44 233.38 260.81 231.44 260.81C228.15 260.81 225.96 262.44 225.96 264.99C225.96 270.2 233.83 268.46 233.83 271.52C233.83 272.55 232.89 273.13 231.32 273.13C229.75 273.13 227.76 272.31 226.26 270.98L225.09 273.34C226.66 274.74 228.94 275.68 231.28 275.68C234.5 275.68 236.89 274.09 236.89 271.35C236.91 266.1 229.04 267.71 229.04 264.74C229.04 263.84 229.9 263.36 231.22 263.36C232.33 263.37 234.03 263.85 235.6 264.79ZM262.63 260.94V263.43H267.19V275.59H270.01V263.43H274.57V260.94H262.63Z" fill="#FCFDFD"/>
</svg>
